<?xml version="1.0" encoding="UTF-8"?>
<svg width="162px" height="95px" viewBox="0 0 162 95" version="1.1" xmlns="http://www.w3.org/2000/svg" xmlns:xlink="http://www.w3.org/1999/xlink">
    <!-- Generator: Sketch 49.1 (51147) - http://www.bohemiancoding.com/sketch -->
    <title>Group</title>
    <desc>Created with Sketch.</desc>
    <defs></defs>
    <g id="_Bupa-Sales-II" stroke="none" stroke-width="1" fill="none" fill-rule="evenodd">
        <g id="login-copy" transform="translate(-45.000000, -152.000000)">
            <g id="Group" transform="translate(34.000000, 152.000000)">
                <g id="Oval-9" transform="translate(0.000000, 11.900826)" fill="#FFFFFF">
                    <path d="M85.5371901,82.5619835 C126.616221,82.5619835 159.917355,49.2608492 159.917355,8.18181818 C159.917355,-32.8972128 126.616221,-66.1983471 85.5371901,-66.1983471 C47.4148389,-66.1983471 15.9910429,-37.5184227 11.6650535,-0.557825171 C11.3295399,2.30875172 11.1570248,5.22513841 11.1570248,8.18181818 C11.1570248,49.2608492 44.4581591,82.5619835 85.5371901,82.5619835 Z"></path>
                </g>
                <g id="Page-1" transform="translate(18.595041, 0.000000)">
                    <polygon id="Fill-1" fill="#FF5700" points="27.0235636 0 26.1653818 0.0557575758 25.3867152 0.224 24.6085333 0.503272727 23.8841697 0.923151515 23.1864727 1.39781818 22.5959273 1.984 22.3001697 2.29236364 22.0592 2.65551515 21.6301091 3.40993939 21.5496242 3.49381818 21.4153212 3.71781818 24.2332606 5.39490909 24.4470788 5.03127273 24.7428364 4.78012121 25.0381091 4.528 25.3867152 4.36072727 25.7362909 4.19248485 26.1387152 4.10909091 26.5411394 4.02472727 27.0235636 4.02472727 27.4536242 4.02472727 27.8827152 4.10909091 28.2584727 4.19248485 28.6337455 4.36072727 28.9561697 4.528 29.2509576 4.78012121 29.5190788 5.03127273 29.7881697 5.39490909 32.6061091 3.71781818 32.4984727 3.49381818 32.4179879 3.38230303 31.9350788 2.62787879 31.4250182 1.984 30.8078061 1.39781818 30.1634424 0.923151515 29.412897 0.503272727 29.0099879 0.335515152 28.6337455 0.224 27.828897 0.0557575758"></polygon>
                    <polygon id="Fill-2" fill="#FF5700" points="106.458764 0 105.599612 0.0557575758 104.820945 0.224 104.043248 0.503272727 103.318885 0.923151515 102.620703 1.39781818 102.030158 1.984 101.73537 2.29236364 101.492945 2.65551515 101.063855 3.40993939 100.983855 3.49381818 100.850036 3.71781818 103.667491 5.39490909 103.881794 5.03127273 104.177067 4.78012121 104.472339 4.528 104.820945 4.36072727 105.169552 4.19248485 105.572461 4.10909091 105.974885 4.02472727 106.458764 4.02472727 106.888339 4.02472727 107.31743 4.10909091 107.692218 4.19248485 108.067976 4.36072727 108.390885 4.528 108.686158 4.78012121 108.953794 5.03127273 109.2224 5.39490909 112.039855 3.71781818 111.932703 3.49381818 111.852218 3.38230303 111.369309 2.62787879 110.859248 1.984 110.243006 1.39781818 109.598158 0.923151515 108.846642 0.503272727 108.444218 0.335515152 108.067976 0.224 107.263127 0.0557575758"></polygon>
                    <polygon id="Fill-3" fill="#0098DD" points="15.0283636 11.9908364 10.8678788 21.1307152 6.78933333 11.9908364 0 11.9908364 8.82909091 29.8230788 12.8814545 29.8230788 21.7910303 11.9908364"></polygon>
                    <polygon id="Fill-4" fill="#0098DD" points="23.9107879 29.8230303 29.9486061 29.8230303 29.9486061 11.9907879 23.9107879 11.9907879"></polygon>
                    <polygon id="Fill-5" fill="#0098DD" points="41.4885333 17.2456727 44.9236848 17.2456727 44.9236848 11.9908848 41.4885333 11.9908848 41.4885333 6.65270303 35.4502303 6.65270303 35.4502303 11.9908848 33.4376242 11.9908848 33.4376242 17.2456727 35.4502303 17.2456727 35.4502303 29.8231273 41.4885333 29.8231273"></polygon>
                    <polygon id="Fill-6" fill="#0098DD" points="78.2801939 16.937697 78.6026182 16.742303 78.9517091 16.6026667 79.2736485 16.5187879 79.6489212 16.4906667 79.9980121 16.5187879 80.3732848 16.6026667 80.7223758 16.742303 81.0981333 16.966303 81.3929212 17.1898182 81.6620121 17.4967273 81.8496485 17.8046061 82.0382545 18.1677576 82.1449212 18.6147879 82.171103 18.8950303 82.2254061 19.257697 82.2792242 20.0407273 82.2792242 20.4877576 82.3063758 21.0191515 82.3063758 29.8235152 88.3441939 29.8235152 88.3441939 21.0191515 88.3703758 19.9563636 88.5046788 19.062303 88.5861333 18.6429091 88.7199515 18.3078788 88.8542545 17.9718788 89.0418909 17.6926061 89.2018909 17.4133333 89.4171636 17.1898182 89.9267394 16.854303 90.1963152 16.7146667 90.5177697 16.6584242 90.8397091 16.6026667 91.2159515 16.6026667 91.5635879 16.6026667 91.9126788 16.6865455 92.235103 16.7985455 92.5570424 16.9944242 92.7989818 17.1898182 93.0399515 17.4690909 93.2557091 17.7764848 93.4428606 18.1677576 93.5500121 18.6147879 93.6571636 19.257697 93.7109818 20.0407273 93.7109818 20.4877576 93.7386182 21.0191515 93.7386182 29.8235152 99.803103 29.8235152 99.803103 18.2521212 99.7764364 17.4414545 99.6959515 16.742303 99.5616485 16.0436364 99.4273455 15.4288485 99.1858909 14.8135758 98.9444364 14.2826667 98.6491636 13.7798788 98.3267394 13.3609697 97.9243152 12.9415758 97.4685576 12.6060606 96.9851636 12.2981818 96.4741333 12.1027879 95.9117091 11.9073939 95.3206788 11.7672727 94.6772848 11.6838788 94.0062545 11.6838788 93.067103 11.712 92.235103 11.878303 91.403103 12.1304242 90.6782545 12.5221818 89.9534061 12.9692121 89.3366788 13.5553939 88.7466182 14.2269091 88.2370424 15.0375758 87.6726788 14.2269091 87.3774061 13.8637576 87.1097697 13.5553939 86.4654061 12.9692121 86.1163152 12.7175758 85.7948606 12.5221818 85.3919515 12.2981818 85.0157091 12.1304242 84.6137697 11.9907879 84.2108606 11.9073939 83.755103 11.7953939 83.3255273 11.7391515 82.4130424 11.712 81.5815273 11.7391515 81.179103 11.7672727 80.830497 11.8506667 80.1061333 12.0189091 79.4879515 12.2700606 78.8174061 12.5779394 78.1730424 13.0249697 77.5286788 13.5277576 76.8852848 14.1992727 76.8852848 11.9907879 70.8469818 11.9907879 70.8469818 29.8235152 76.8852848 29.8235152 76.8852848 21.0191515 76.9119515 19.9849697 76.9924364 19.1461818 77.1262545 18.4475152 77.3143758 17.9718788 77.4491636 17.6649697 77.6901333 17.3852121 77.931103 17.1335758"></polygon>
                    <polygon id="Fill-7" fill="#0098DD" points="103.505939 29.8230303 109.544242 29.8230303 109.544242 11.9907879 103.505939 11.9907879"></polygon>
                    <path d="M54.2086788,18.0286061 L54.4768,17.7207273 L54.7992242,17.4690909 L55.4702545,17.1059394 L56.1946182,16.8819394 L56.5703758,16.8266667 L56.9999515,16.8266667 L57.3752242,16.8266667 L57.7509818,16.8819394 L58.0995879,16.966303 L58.4753455,17.1059394 L58.7977697,17.2455758 L59.1463758,17.4690909 L59.4416485,17.7207273 L59.7635879,18.0286061 L60.0055273,18.3078788 L60.246497,18.6429091 L60.4346182,18.9784242 L60.5955879,19.3420606 L60.8098909,20.0964848 L60.8641939,20.4877576 L60.8908606,20.9347879 L60.8641939,21.3260606 L60.8098909,21.7178182 L60.7027394,22.0804848 L60.5955879,22.4727273 L60.4346182,22.8072727 L60.246497,23.1427879 L60.1126788,23.2824242 L60.0055273,23.4506667 L59.7635879,23.7861818 L59.4416485,24.0378182 L59.2801939,24.1493333 L59.1463758,24.2889697 L59.0392242,24.3170909 L58.7977697,24.4848485 L58.4753455,24.6807273 L58.0995879,24.7917576 L57.7509818,24.9037576 L57.3752242,24.9595152 L56.9999515,24.9876364 L56.5970424,24.9595152 L56.2208,24.9037576 L55.4964364,24.6807273 L54.8258909,24.2889697 L54.5034667,24.0378182 L54.2363152,23.7861818 L53.9400727,23.4506667 L53.699103,23.1427879 L53.4843152,22.7796364 L53.3500121,22.4446061 L53.2161939,22.0528485 L53.1352242,21.689697 L53.0814061,21.2984242 L53.0814061,20.9071515 L53.0814061,20.4596364 L53.1352242,20.0688485 L53.3500121,19.3134545 L53.699103,18.6147879 L54.2086788,18.0286061 Z M60.7027394,29.8235152 L66.7677091,29.8235152 L66.7677091,11.9907879 L60.7027394,11.9907879 L60.7027394,13.7236364 L60.4079515,13.4162424 L60.1388606,13.1650909 L59.5492848,12.6894545 L58.9315879,12.2700606 L58.2877091,11.9631515 L57.5900121,11.712 L56.8923152,11.5437576 L56.1408,11.4322424 L55.3897697,11.4041212 L54.4501333,11.4322424 L53.5919515,11.5718788 L52.7594667,11.7672727 L52.0084364,12.0746667 L51.2292848,12.438303 L50.5325576,12.9129697 L49.8610424,13.472 L49.2443152,14.1430303 L48.6261333,14.8135758 L48.1170424,15.5684848 L47.6874667,16.3229091 L47.3660121,17.161697 L47.0702545,18 L46.883103,18.9226667 L46.7754667,19.8729697 L46.7478303,20.9071515 L46.7754667,21.8569697 L46.883103,22.8072727 L47.0702545,23.7018182 L47.3660121,24.5682424 L47.4993455,24.9595152 L47.6874667,25.3793939 L47.875103,25.7706667 L48.1170424,26.1900606 L48.6261333,26.9444848 L49.2443152,27.6707879 L49.8610424,28.2865455 L50.5592242,28.8455758 L51.2569212,29.3202424 L52.035103,29.7110303 L52.8128,29.9912727 L53.6452848,30.214303 L54.5034667,30.3544242 L55.4164364,30.4101818 L56.2208,30.3544242 L56.5970424,30.2986667 L56.9999515,30.2429091 L57.3485576,30.1309091 L57.7243152,30.0189091 L58.4220121,29.7667879 L58.5558303,29.6552727 L58.7172848,29.5718788 L59.0392242,29.376 L59.6297697,28.9566061 L59.8978909,28.6773333 L60.0321939,28.537697 L60.1936485,28.425697 L60.4346182,28.1464242 L60.7027394,27.8666667 L60.7027394,29.8235152 Z" id="Fill-8" fill="#0098DD"></path>
                    <polygon id="Fill-9" fill="#0098DD" points="122.72097 16.6026667 123.123394 16.6026667 123.526303 16.6865455 123.874424 16.7704242 124.196848 16.937697 124.465455 17.1059394 124.733576 17.3570909 124.948364 17.6092121 125.136485 17.9718788 125.189333 18.1401212 125.270303 18.3912727 125.324121 18.6710303 125.404121 19.0346667 125.431273 19.3973333 125.484606 19.8448485 125.484606 20.2918788 125.511758 20.8232727 125.511758 29.8235152 131.577212 29.8235152 131.577212 18.5032727 131.549576 18.0286061 131.549576 17.6092121 131.470061 16.854303 131.361939 16.1556364 131.281455 15.8482424 131.228121 15.5966061 131.013333 15.0647273 130.744242 14.5624242 130.395152 14.0591515 129.993212 13.584 129.482667 13.1083636 128.973576 12.6894545 128.410667 12.326303 127.820121 12.0746667 127.175273 11.8506667 126.530909 11.712 125.833697 11.6281212 125.108848 11.5995152 124.169697 11.6281212 123.740606 11.6557576 123.364848 11.7391515 122.961939 11.7949091 122.613818 11.9069091 122.264242 12.0189091 121.969455 12.1866667 121.325091 12.5221818 120.734545 12.9692121 120.14497 13.5277576 119.553939 14.2269091 119.553939 11.9907879 113.489455 11.9907879 113.489455 29.8235152 119.553939 29.8235152 119.553939 20.2642424 119.580606 19.4254545 119.634909 19.0346667 119.742061 18.6986667 120.010182 18.0562424 120.170667 17.7764848 120.385939 17.5529697 120.573091 17.3013333 120.81503 17.1059394 121.378909 16.8266667 121.996121 16.6584242"></polygon>
                    <polygon id="Fill-10" fill="#FF5700" points="105.196364 37.0896 104.39103 38.2643879 103.533333 39.3829333 103.103273 39.9409939 102.88897 40.2207515 102.781818 40.359903 102.701818 40.5276606 101.788364 41.5904485 101.65503 41.7019636 101.548364 41.8416 101.333091 42.1213576 100.90303 42.6803879 100.420606 43.1841455 100.285818 43.2951758 100.177697 43.4357818 99.9638788 43.7145697 99.4809697 44.2178424 99.3461818 44.3283879 99.2390303 44.4699636 99.0242424 44.7492364 98.7570909 44.9722667 98.622303 45.0842667 98.513697 45.223903 98.0322424 45.7266909 97.7636364 45.9502061 97.6298182 46.0626909 97.521697 46.203297 97.038303 46.7051152 96.5025455 47.1531152 96.2334545 47.3761455 96.0996364 47.4881455 95.992 47.6277818 94.9728485 48.5785697 94.8113939 48.6619636 94.6775758 48.7739636 94.4089697 48.9969939 93.8722424 49.4445091 92.7992727 50.3380848 91.6710303 51.1773576 90.545697 52.0437818 89.0955152 52.9936 87.646303 53.9167515 86.1975758 54.7560242 85.4722424 55.1468121 84.7745455 55.5652364 84.0235152 55.9007515 83.6472727 56.0680242 83.4596364 56.1523879 83.2981818 56.2648727 81.8494545 56.9354182 80.4007273 57.5225697 78.9515152 58.0811152 77.4494545 58.5276606 75.9997576 58.9475394 74.4962424 59.2840242 73.0475152 59.5899636 71.5449697 59.7868121 70.7934545 59.8697212 70.0686061 59.9822061 68.5660606 60.0656 67.8150303 60.0942061 67.4387879 60.0942061 67.2516364 60.0942061 67.0906667 60.1218424 65.5871515 60.0656 64.0846061 59.9822061 62.5815758 59.7868121 61.1052121 59.5899636 59.6026667 59.2840242 58.1267879 58.9475394 56.6509091 58.5276606 55.201697 58.0811152 53.7248485 57.5225697 52.2766061 56.9354182 50.8278788 56.2648727 49.3781818 55.5652364 47.9294545 54.7560242 46.4797576 53.9167515 45.0305455 52.9936 43.6356364 52.0437818 42.4540606 51.1773576 41.3277576 50.3380848 40.2266667 49.4445091 39.1808485 48.5785697 38.1069091 47.6277818 37.0872727 46.7051152 35.1284848 44.7492364 33.2230303 42.6803879 32.3105455 41.5904485 31.4518788 40.5276606 29.7612121 38.2643879 28.9563636 37.0896 28.2048485 35.9443879 25.3869091 37.6219636 26.1117576 39.1865697 26.9166061 40.7240242 27.7486061 42.2057212 28.6339394 43.6588121 29.5192727 45.0566303 30.4855758 46.4258424 31.4785455 47.739297 32.552 49.0246303 33.5987879 50.2556606 34.7522424 51.4571152 35.9066667 52.6023273 37.1410909 53.7213576 38.3750303 54.7831758 39.6904242 55.8168727 41.0053333 56.8234182 42.4278788 57.8013576 43.8227879 58.667297 45.2458182 59.5342061 46.6678788 60.2891152 48.1437576 61.0435394 49.6201212 61.6864485 51.1226667 62.3007515 52.625697 62.8326303 54.1815758 63.3640242 55.7117576 63.7834182 57.2952727 64.1465697 58.878303 64.4534788 60.4884848 64.7608727 62.0986667 64.9567515 63.7350303 65.095903 65.3995152 65.1807515 67.0906667 65.2365091 67.8945455 65.2083879 68.0826667 65.1807515 68.2969697 65.1807515 68.7275152 65.1807515 70.3905455 65.095903 71.1963636 65.0115394 72.0278788 64.9567515 72.8332121 64.8452364 73.2356364 64.7885091 73.6647273 64.7608727 74.4433939 64.5931152 75.2477576 64.4534788 76.0264242 64.2862061 76.8312727 64.1465697 78.3876364 63.7834182 79.166303 63.5594182 79.9711515 63.3640242 81.4741818 62.8326303 82.2252121 62.5533576 82.6004848 62.4132364 83.0033939 62.3007515 83.352 62.1339636 83.7277576 61.9933576 84.4797576 61.6864485 85.9827879 61.0435394 87.4310303 60.2891152 88.8807273 59.5342061 89.5784242 59.0871758 89.9270303 58.8631758 90.302303 58.667297 91.7524848 57.8013576 92.4225455 57.2980848 93.1202424 56.8234182 94.462303 55.8168727 95.7505455 54.7831758 97.0116364 53.7213576 98.2198788 52.6023273 99.4004848 51.4571152 100.527758 50.2556606 101.627879 49.0246303 102.648 47.739297 103.130909 47.0677818 103.371879 46.7337212 103.640485 46.4258424 104.606303 45.0566303 105.545939 43.6588121 106.404121 42.2057212 106.591758 41.8134788 106.806545 41.4508121 107.236121 40.7240242 108.041455 39.1865697 108.820121 37.6219636 106.002182 35.9443879"></polygon>
                    <path d="M141.720436,11.4318545 L140.862739,11.5714909 L140.029285,11.7673697 L139.278255,12.0747636 L138.500558,12.4379152 L137.802376,12.9130667 L137.13183,13.472097 L136.514618,14.1431273 L135.896921,14.8131879 L135.386861,15.5685818 L134.958255,16.3230061 L134.63583,17.1617939 L134.340558,18.000097 L134.153406,18.9222788 L134.045285,19.8730667 L134.019588,20.9077333 L134.045285,21.8570667 L134.153406,22.8073697 L134.340558,23.7019152 L134.63583,24.5683394 L134.770133,24.9596121 L134.958255,25.3794909 L135.145891,25.7702788 L135.386861,26.1896727 L135.896921,26.944097 L136.514618,27.6708848 L137.13183,28.2861576 L137.829527,28.8451879 L138.527224,29.3203394 L139.305406,29.7111273 L140.084073,29.9913697 L140.916073,30.2144 L141.774739,30.3550061 L142.686739,30.4102788 L143.492073,30.3550061 L143.867345,30.2987636 L144.270739,30.2430061 L144.618861,30.1310061 L144.994618,30.0185212 L145.6928,29.7668848 L145.826618,29.6553697 L145.987103,29.5719758 L146.309527,29.376097 L146.900558,28.956703 L147.168194,28.6774303 L147.302012,28.5377939 L147.463467,28.4257939 L147.705406,28.1465212 L147.973527,27.8667636 L147.973527,29.8231273 L154.01183,29.8231273 L154.01183,11.9908848 L147.973527,11.9908848 L147.973527,13.7237333 L147.678255,13.4158545 L147.409648,13.1651879 L146.819588,12.6895515 L146.202376,12.2701576 L145.558497,11.9627636 L144.860315,11.712097 L144.484558,11.5996121 L144.135952,11.5433697 L143.384436,11.4318545 L142.632436,11.4037333 L141.720436,11.4318545 Z M143.867345,24.9596121 L143.492073,24.9038545 L142.767224,24.6808242 L142.096194,24.2890667 L141.774739,24.0374303 L141.506133,23.7862788 L141.21183,23.4507636 L140.969406,23.1428848 L140.754618,22.7792485 L140.6208,22.444703 L140.45983,22.0529455 L140.378376,21.6897939 L140.325042,21.2980364 L140.325042,20.9077333 L140.325042,20.4592485 L140.378376,20.0689455 L140.593648,19.3135515 L140.94177,18.6148848 L141.478982,18.028703 L141.747103,17.7208242 L142.069527,17.468703 L142.740073,17.1060364 L143.464921,16.8820364 L143.841164,16.8267636 L144.270739,16.8267636 L144.646012,16.8267636 L145.021285,16.8820364 L145.370376,16.9664 L145.745648,17.1060364 L146.068558,17.2456727 L146.417648,17.468703 L146.711952,17.7208242 L147.034376,18.028703 L147.275345,18.3079758 L147.517285,18.6425212 L147.705406,18.9785212 L147.866376,19.3421576 L148.080194,20.096097 L148.134982,20.4878545 L148.160679,20.9348848 L148.134982,21.3261576 L148.080194,21.7179152 L147.973527,22.0805818 L147.866376,22.4723394 L147.705406,22.8073697 L147.517285,23.1428848 L147.383467,23.2825212 L147.275345,23.4507636 L147.034376,23.7862788 L146.711952,24.0374303 L146.550497,24.1494303 L146.417648,24.2890667 L146.309527,24.316703 L146.068558,24.4854303 L145.745648,24.6808242 L145.370376,24.7918545 L145.021285,24.9038545 L144.646012,24.9596121 L144.270739,24.9872485 L143.867345,24.9596121 Z" id="Fill-11" fill="#0098DD"></path>
                </g>
            </g>
        </g>
    </g>
</svg>