<?xml version="1.0" encoding="UTF-8"?>
<svg width="169px" height="71px" viewBox="0 0 169 71" version="1.1" xmlns="http://www.w3.org/2000/svg" xmlns:xlink="http://www.w3.org/1999/xlink">
    <!-- Generator: Sketch 49.1 (51147) - http://www.bohemiancoding.com/sketch -->
    <title>Page-1</title>
    <desc>Created with Sketch.</desc>
    <defs></defs>
    <g id="Symbols" stroke="none" stroke-width="1" fill="none" fill-rule="evenodd">
        <g id="Footer" transform="translate(-1048.000000, -237.000000)" fill="#FFFFFF" fill-rule="nonzero">
            <g id="Page-1" transform="translate(1048.000000, 237.000000)">
                <polygon id="Fill-1" points="29.0137775 0 28.0935401 0.0620113239 27.2585677 0.249123753 26.424115 0.559719601 25.6473723 1.02669183 24.8992245 1.55459692 24.2659764 2.20652467 23.9488324 2.54947426 23.690438 2.9533567 23.2303193 3.79239687 23.1440145 3.88568347 23 4.13480722 26.0217062 6 26.2509857 5.59557833 26.5681297 5.31625775 26.8847537 5.03585872 27.2585677 4.84982475 27.6334214 4.66271232 28.0649452 4.56996495 28.496469 4.47613912 29.0137775 4.47613912 29.474936 4.47613912 29.9350549 4.56996495 30.3379836 4.66271232 30.7403926 4.84982475 31.0861315 5.03585872 31.4022356 5.31625775 31.6897448 5.59557833 31.9782938 6 35 4.13480722 34.8845804 3.88568347 34.7982757 3.76166083 34.2804471 2.92262066 33.7335038 2.20652467 33.0716607 1.55459692 32.3807027 1.02669183 31.575885 0.559719601 31.1438413 0.373146401 30.7403926 0.249123753 29.877345 0.0620113239"></polygon>
                <polygon id="Fill-2" points="117.014819 0 116.093461 0.0620113239 115.258416 0.249123753 114.424411 0.559719601 113.647602 1.02669183 112.898869 1.55459692 112.265567 2.20652467 111.949435 2.54947426 111.689458 2.9533567 111.2293 3.79239687 111.143508 3.88568347 111 4.13480722 114.021448 6 114.251268 5.59557833 114.567919 5.31625775 114.88457 5.03585872 115.258416 4.84982475 115.632264 4.66271232 116.064345 4.56996495 116.495906 4.47613912 117.014819 4.47613912 117.475497 4.47613912 117.935655 4.56996495 118.337579 4.66271232 118.740543 4.84982475 119.086832 5.03585872 119.403484 5.31625775 119.690498 5.59557833 119.978552 6 123 4.13480722 122.88509 3.88568347 122.798777 3.76166083 122.280904 2.92262066 121.733913 2.20652467 121.073053 1.55459692 120.381516 1.02669183 119.575588 0.559719601 119.144027 0.373146401 118.740543 0.249123753 117.877421 0.0620113239"></polygon>
                <polygon id="Fill-3" points="16.5517978 13 11.9695621 22.7384105 7.47757209 13 0 13 9.72410111 32 14.1872552 32 24 13"></polygon>
                <polygon id="Fill-4" points="26 32 33 32 33 13 26 13"></polygon>
                <polygon id="Fill-5" points="46.1120726 18.4294084 50 18.4294084 50 12.7596936 46.1120726 12.7596936 46.1120726 7 39.277881 7 39.277881 12.7596936 37 12.7596936 37 18.4294084 39.277881 18.4294084 39.277881 32 46.1120726 32"></polygon>
                <polygon id="Fill-6" points="86.2145943 18.7926389 86.5709119 18.5772057 86.9566994 18.4232486 87.3124812 18.3307674 87.7272027 18.2997621 88.1129902 18.3307674 88.5277117 18.4232486 88.9134993 18.5772057 89.3287566 18.8241787 89.6545327 19.0706172 89.9519105 19.4090022 90.1592713 19.7484564 90.3677037 20.148852 90.4855832 20.6417288 90.5145173 20.9507123 90.5745287 21.3505733 90.6340042 22.2139096 90.6340042 22.7067864 90.66401 23.292679 90.66401 33 97.3365259 33 97.3365259 23.292679 97.36546 22.1208937 97.513881 21.1351401 97.6038981 20.6727341 97.7517833 20.3033437 97.9002043 19.9328843 98.1075651 19.6249699 98.2843843 19.3170555 98.5222866 19.0706172 99.0854292 18.7006922 99.3833429 18.5467351 99.7385888 18.4847245 100.094371 18.4232486 100.510164 18.4232486 100.894344 18.4232486 101.280131 18.5157299 101.636449 18.6392163 101.992231 18.855184 102.259603 19.0706172 102.525903 19.3785315 102.764341 19.7174511 102.971166 20.148852 103.089582 20.6417288 103.207997 21.3505733 103.267473 22.2139096 103.267473 22.7067864 103.298014 23.292679 103.298014 33 110 33 110 20.2418678 109.97053 19.3480608 109.881585 18.5772057 109.733164 17.8068853 109.584743 17.129046 109.317906 16.4506723 109.05107 15.8653142 108.724758 15.3109614 108.36844 14.8490899 107.923713 14.3866838 107.420046 14.0167589 106.885838 13.6773046 106.321088 13.4618716 105.699541 13.2464383 105.046382 13.0919466 104.335354 13 103.593785 13 102.555909 13.0310053 101.636449 13.2143639 100.716989 13.4923422 99.9159439 13.9242776 99.1148991 14.4171544 98.4333412 15.0634538 97.7812532 15.8038382 97.2181106 16.6976452 96.5944209 15.8038382 96.268109 15.4034427 95.9723385 15.0634538 95.2602392 14.4171544 94.8744517 14.1397108 94.5192057 13.9242776 94.0739426 13.6773046 93.6581495 13.4923422 93.213958 13.3383851 92.768695 13.2464383 92.265028 13.1229519 91.7902951 13.0609414 90.7818894 13.0310053 89.8629651 13.0609414 89.4182378 13.0919466 89.0329862 13.1838933 88.2324771 13.3693903 87.5493118 13.6462994 86.8082784 13.9857536 86.096179 14.4786304 85.3840796 15.0329832 84.6730518 15.7733675 84.6730518 13.3383851 78 13.3383851 78 33 84.6730518 33 84.6730518 23.292679 84.7025217 22.1524336 84.7914672 21.2276214 84.9393523 20.457301 85.147249 19.9328843 85.2962057 19.5944992 85.5625063 19.2860503 85.8288068 19.0086067"></polygon>
                <polygon id="Fill-7" points="114 32 121 32 121 13 114 13"></polygon>
                <path d="M59.1987843,19.3194643 L59.4934247,18.9792858 L59.8477392,18.70125 L60.5851396,18.3 L61.3811485,18.0525 L61.7940714,17.9914286 L62.2661355,17.9914286 L62.6785255,17.9914286 L63.0914485,18.0525 L63.4745344,18.1457143 L63.8874574,18.3 L64.2417718,18.4542858 L64.6248578,18.70125 L64.9493352,18.9792858 L65.3031169,19.3194643 L65.568986,19.6280357 L65.8337895,19.9982143 L66.0405173,20.3689285 L66.2174082,20.7707143 L66.4529074,21.6042857 L66.5125814,22.0366072 L66.5418856,22.5305358 L66.5125814,22.9628572 L66.4529074,23.3957143 L66.3351578,23.7964285 L66.2174082,24.2298215 L66.0405173,24.5994643 L65.8337895,24.9701786 L65.6867356,25.1244643 L65.568986,25.3103572 L65.3031169,25.6810714 L64.9493352,25.9591072 L64.7719115,26.0823214 L64.6248578,26.2366072 L64.507108,26.2676786 L64.2417718,26.4530357 L63.8874574,26.6694643 L63.4745344,26.7921429 L63.0914485,26.9158929 L62.6785255,26.9775001 L62.2661355,27.0085715 L61.8233755,26.9775001 L61.4099198,26.9158929 L60.6139111,26.6694643 L59.8770434,26.2366072 L59.522729,25.9591072 L59.2291541,25.6810714 L58.9036109,25.3103572 L58.6388075,24.9701786 L58.4027755,24.5689286 L58.2551888,24.1987501 L58.1081349,23.7658929 L58.0191567,23.3646429 L57.9600155,22.9323214 L57.9600155,22.5 L57.9600155,22.0055358 L58.0191567,21.57375 L58.2551888,20.7391071 L58.6388075,19.9671429 L59.1987843,19.3194643 Z M66.3351578,32.3517858 L73,32.3517858 L73,12.6482143 L66.3351578,12.6482143 L66.3351578,14.5628572 L66.0112131,14.2232143 L65.715507,13.9457143 L65.0676176,13.4201785 L64.3888257,12.9567857 L63.6812623,12.6176786 L62.9145576,12.3401786 L62.1478531,12.1542858 L61.3220072,12.0310714 L60.4966942,12 L59.4641205,12.0310714 L58.5210578,12.1853572 L57.6062338,12.40125 L56.7809208,12.7408929 L55.9247051,13.1426786 L55.1590662,13.6671429 L54.4211329,14.2848214 L53.7434066,15.02625 L53.0640817,15.7671429 L52.5046378,16.60125 L52.0325737,17.4348215 L51.6793248,18.3616072 L51.3543145,19.2878572 L51.1486522,20.3073215 L51.0303699,21.3573214 L51,22.5 L51.0303699,23.5494643 L51.1486522,24.5994643 L51.3543145,25.5878572 L51.6793248,26.5451786 L51.8258459,26.9775001 L52.0325737,27.4414285 L52.2387687,27.8737501 L52.5046378,28.3371429 L53.0640817,29.1707143 L53.7434066,29.9732143 L54.4211329,30.6535715 L55.1883703,31.2712501 L55.9550749,31.7957143 L56.810225,32.2275 L57.6648422,32.5371428 L58.5796662,32.7835714 L59.522729,32.9383928 L60.5259984,33 L61.4099198,32.9383928 L61.8233755,32.8767858 L62.2661355,32.8151786 L62.6492214,32.6914286 L63.0621443,32.5676786 L63.8288489,32.2891072 L63.9759027,32.1658928 L64.1533263,32.07375 L64.507108,31.8573214 L65.1560631,31.3939286 L65.4507035,31.0853571 L65.5982901,30.9310715 L65.7757138,30.8073215 L66.0405173,30.49875 L66.3351578,30.1896429 L66.3351578,32.3517858 Z" id="Fill-8"></path>
                <polygon id="Fill-9" points="134.207473 18.4907282 134.652442 18.4907282 135.097947 18.5827813 135.482871 18.6748343 135.839382 18.8584085 136.136386 19.0430468 136.432853 19.3186739 136.670348 19.5953653 136.878357 19.9933753 136.936793 20.1780136 137.026323 20.4536408 137.08583 20.7606619 137.174288 21.1597361 137.204311 21.5577459 137.263282 22.0488732 137.263282 22.5394684 137.293304 23.1226487 137.293304 33 144 33 144 20.5765556 143.969442 20.0556309 143.969442 19.5953653 143.881521 18.7668874 143.761968 18.000133 143.672975 17.6627823 143.614003 17.386623 143.376508 16.8029106 143.078968 16.2516561 142.692972 15.6993375 142.248539 15.1778806 141.684019 14.6558916 141.121107 14.1961581 140.498687 13.7976161 139.845708 13.5214569 139.132687 13.2756272 138.4202 13.1234469 137.649279 13.0313938 136.847799 13 135.80936 13.0313938 135.334906 13.0617234 134.919422 13.1532444 134.473918 13.2144358 134.088993 13.3373506 133.70246 13.4602655 133.376508 13.6443717 132.664022 14.0125841 132.011043 14.5031792 131.359138 15.1161572 130.705623 15.8834437 130.705623 13.4294038 124 13.4294038 124 33 130.705623 33 130.705623 22.5091387 130.735109 21.5886077 130.795153 21.1597361 130.913633 20.7909915 131.2101 20.0859605 131.387552 19.7789394 131.625582 19.5336419 131.83252 19.2574826 132.100037 19.0430468 132.723529 18.7365578 133.405993 18.5519194"></polygon>
                <polygon id="Fill-10" points="116.004161 40.25108 115.116137 41.5344699 114.170373 42.7564181 113.696155 43.366068 113.459848 43.6716875 113.341694 43.8237027 113.253479 44.0069684 112.246233 45.1680046 112.099209 45.2898286 111.981591 45.4423736 111.744214 45.7479931 111.269995 46.3587023 110.738036 46.9090292 110.589408 47.0303236 110.470186 47.1839278 110.234413 47.4884879 109.70192 48.0382851 109.553292 48.1590499 109.435138 48.3137134 109.198296 48.6188033 108.903714 48.8624514 108.755086 48.9848051 108.635329 49.1373499 108.104439 49.6866175 107.808253 49.9307954 107.660695 50.0536787 107.541472 50.207283 107.008444 50.7554912 106.417676 51.2449061 106.120955 51.4885542 105.973396 51.6109079 105.854708 51.7634527 104.730912 52.8021352 104.552879 52.8932384 104.405321 53.0155921 104.109135 53.2592402 103.517297 53.7481255 102.334157 54.7243068 101.090068 55.6411653 99.8491875 56.5876851 98.2501034 57.6253083 96.6520884 58.6337995 95.0546082 59.5506579 94.2547988 59.9775718 93.4854635 60.4346768 92.6573186 60.8012083 92.2424441 60.9839443 92.0355416 61.0761069 91.8575091 61.1989903 90.2600288 61.9315236 88.6625486 62.5729537 87.0645338 63.1831334 85.4082439 63.6709592 83.8096944 64.1296532 82.1518007 64.497244 80.5543205 64.8314656 78.8974961 65.0465116 78.0688165 65.1370851 77.2695418 65.2599686 75.6127174 65.3510717 74.7845725 65.3823223 74.3696981 65.3823223 74.1633302 65.3823223 73.9858324 65.4125134 72.3279387 65.3510717 70.6711143 65.2599686 69.0137553 65.0465116 67.3858009 64.8314656 65.7289766 64.497244 64.1015569 64.1296532 62.4741373 63.6709592 60.8761224 63.1831334 59.2476335 62.5729537 57.6506879 61.9315236 56.0532076 61.1989903 54.454658 60.4346768 52.8571777 59.5506579 51.2586283 58.6337995 49.6606134 57.6253083 48.1224773 56.5876851 46.8195792 55.6411653 45.5776292 54.7243068 44.3634801 53.7481255 43.2102789 52.8021352 42.0260692 51.7634527 40.9017381 50.7554912 38.741825 48.6188033 36.6407215 46.3587023 35.6345443 45.1680046 34.687711 44.0069684 32.8234494 41.5344699 31.9359604 40.25108 31.1072809 39 28 40.8326574 28.7992748 42.5419018 29.6867638 44.2214847 30.6041923 45.8401556 31.5804302 47.4275759 32.5566681 48.9546139 33.6221896 50.4504013 34.7171158 51.8852769 35.9007909 53.2894314 37.0550613 54.634263 38.3269507 55.9467848 39.5999094 57.1978648 40.9610823 58.4203426 42.3217206 59.5803195 43.772177 60.7095754 45.2220989 61.8091699 46.7907091 62.8775139 48.3288452 63.8235041 49.89799 64.7705537 51.4660655 65.5952496 53.0934851 66.4194157 54.7214394 67.1217578 56.3782638 67.7928494 58.0356229 68.3738972 59.7512568 68.9544152 61.4385552 69.4125797 63.1846631 69.8093023 64.9302364 70.1445833 66.7057491 70.4803939 68.4812619 70.6943805 70.2856446 70.8463957 72.1210362 70.9390879 73.9858324 71 74.8722522 70.9692792 75.0796894 70.9390879 75.3159967 70.9390879 75.7907499 70.9390879 77.6245375 70.8463957 78.5130957 70.7542332 79.4299895 70.6943805 80.3180131 70.5725565 80.7617577 70.5105851 81.234907 70.4803939 82.0935258 70.2971282 82.9804803 70.1445833 83.8390991 69.9618473 84.7265882 69.8093023 86.4427568 69.4125797 87.3013756 69.1678722 88.1888647 68.9544152 89.8462237 68.3738972 90.6743686 68.0688074 91.0881737 67.9157329 91.5324529 67.7928494 91.9168533 67.610643 92.3311931 67.4570388 93.1604072 67.1217578 94.8177662 66.4194157 96.4147118 65.5952496 98.0132614 64.7705537 98.7825967 64.2821982 99.1669971 64.0374907 99.5808022 63.8235041 101.179886 62.8775139 101.918748 62.3277166 102.688083 61.8091699 104.167944 60.7095754 105.588461 59.5803195 106.979039 58.4203426 108.311342 57.1978648 109.613171 55.9467848 110.85619 54.634263 112.06927 53.2894314 113.194136 51.8852769 113.726629 51.1516841 113.992341 50.7867417 114.288527 50.4504013 115.353514 48.9546139 116.38963 47.4275759 117.335929 45.8401556 117.542832 45.4116527 117.779673 45.0154597 118.253357 44.2214847 119.141382 42.5419018 120 40.8326574 116.89272 39"></polygon>
                <path d="M155.47422,12.0310706 L154.530387,12.1853524 L153.613232,12.4017755 L152.786778,12.7414097 L151.93098,13.1426495 L151.162682,13.6676361 L150.424795,14.2852989 L149.745598,15.0267086 L149.065868,15.7670468 L148.504584,16.6016683 L148.032934,17.4352186 L147.678129,18.3619805 L147.353204,19.288207 L147.147257,20.3071095 L147.028278,21.3576185 L147,22.5008035 L147.028278,23.5497054 L147.147257,24.5996786 L147.353204,25.5880463 L147.678129,26.5453432 L147.82592,26.9776536 L148.032934,27.4415704 L148.239414,27.8733451 L148.504584,28.3367261 L149.065868,29.1702763 L149.745598,29.9732914 L150.424795,30.6530956 L151.192559,31.2707584 L151.960324,31.795745 L152.816656,32.2275197 L153.673522,32.5371547 L154.589077,32.7835769 L155.533976,32.9389302 L156.537566,33 L157.423777,32.9389302 L157.836736,32.8767888 L158.280642,32.8151833 L158.663725,32.6914365 L159.077218,32.5671539 L159.845516,32.2891252 L159.992773,32.1659141 L160.169375,32.0737737 L160.524179,31.8573506 L161.174565,31.3939695 L161.469079,31.085406 L161.616336,30.9311242 L161.794005,30.8073773 L162.060242,30.4988138 L162.355289,30.1897145 L162.355289,32.3512666 L169,32.3512666 L169,12.6487334 L162.355289,12.6487334 L162.355289,14.5633275 L162.030364,14.2231576 L161.734782,13.9462004 L161.085464,13.4206781 L160.406267,12.9572971 L159.697725,12.6176628 L158.929427,12.3407057 L158.515934,12.2164231 L158.132319,12.1542818 L157.30533,12.0310706 L156.477809,12 L155.47422,12.0310706 Z M157.836736,26.9776536 L157.423777,26.916048 L156.626134,26.6696257 L155.887714,26.2367797 L155.533976,25.9587511 L155.238395,25.6812581 L154.914536,25.3105533 L154.647766,24.9703834 L154.411408,24.568608 L154.264151,24.1989745 L154.087015,23.7661285 L153.997381,23.3648886 L153.938691,22.9320426 L153.938691,22.5008035 L153.938691,22.0052805 L153.997381,21.5740415 L154.234272,20.7394199 L154.617355,19.9674753 L155.208517,19.3198133 L155.503565,18.9796433 L155.858369,18.701079 L156.596256,18.3003751 L157.393898,18.0528814 L157.807926,17.9918114 L158.280642,17.9918114 L158.693602,17.9918114 L159.106563,18.0528814 L159.490712,18.1460932 L159.903671,18.3003751 L160.25901,18.4546568 L160.643158,18.701079 L160.967018,18.9796433 L161.321822,19.3198133 L161.586991,19.6283769 L161.853228,19.9980103 L162.060242,20.3692508 L162.237377,20.7710263 L162.472668,21.6040408 L162.532959,22.0368868 L162.561236,22.5308027 L162.532959,22.9631132 L162.472668,23.3959593 L162.355289,23.7966633 L162.237377,24.2295095 L162.060242,24.5996786 L161.853228,24.9703834 L161.705971,25.1246652 L161.586991,25.3105533 L161.321822,25.6812581 L160.967018,25.9587511 L160.789349,26.0824979 L160.643158,26.2367797 L160.524179,26.2673146 L160.25901,26.4537384 L159.903671,26.6696257 L159.490712,26.7923012 L159.106563,26.916048 L158.693602,26.9776536 L158.280642,27.0081886 L157.836736,26.9776536 Z" id="Fill-11"></path>
            </g>
        </g>
    </g>
</svg>